<svg width="35" height="35" viewBox="0 0 35 35" fill="none" xmlns="http://www.w3.org/2000/svg">
<path fill-rule="evenodd" clip-rule="evenodd" d="M21.525 19.3521L29.8813 27.7083L27.7083 29.8813L19.3521 21.525C17.7917 22.6479 15.9104 23.3333 13.8542 23.3333C8.61875 23.3333 4.375 19.0896 4.375 13.8542C4.375 8.61875 8.61875 4.375 13.8542 4.375C19.0896 4.375 23.3333 8.61875 23.3333 13.8542C23.3333 15.9104 22.6479 17.7917 21.525 19.3521ZM13.8542 7.29167C10.2229 7.29167 7.29167 10.2229 7.29167 13.8542C7.29167 17.4854 10.2229 20.4167 13.8542 20.4167C17.4854 20.4167 20.4167 17.4854 20.4167 13.8542C20.4167 10.2229 17.4854 7.29167 13.8542 7.29167Z" fill="black"/>
</svg>
