<svg width="35" height="35" viewBox="0 0 35 35" fill="none" xmlns="http://www.w3.org/2000/svg">
<mask id="path-1-inside-1_707_48327" fill="white">
<path fill-rule="evenodd" clip-rule="evenodd" d="M27.5578 16.8332C28.1317 15.5135 28.4502 14.0559 28.4502 12.5237C28.4502 6.57355 23.6484 1.75 17.7251 1.75C11.8018 1.75 7 6.57355 7 12.5237C7 14.0559 7.31842 15.5135 7.89241 16.8332H7.85866L8.04073 17.1592C8.24389 17.5867 8.47428 17.9987 8.72964 18.3928L16.8526 32.9386C17.2342 33.6219 18.2173 33.6219 18.5988 32.9386L26.73 18.3782C26.9785 17.9933 27.2031 17.5916 27.4019 17.175L27.5928 16.8332H27.5578Z"/>
</mask>
<path d="M27.5578 16.8332L24.8067 15.6366L22.9814 19.8332H27.5578V16.8332ZM7.89241 16.8332V19.8332H12.4687L10.6435 15.6366L7.89241 16.8332ZM7.85866 16.8332V13.8332H2.74724L5.2394 18.2959L7.85866 16.8332ZM8.04073 17.1592L10.7504 15.8716L10.708 15.7826L10.66 15.6965L8.04073 17.1592ZM8.72964 18.3928L11.3489 16.9301L11.3009 16.8442L11.2474 16.7616L8.72964 18.3928ZM16.8526 32.9386L14.2334 34.4013L14.2334 34.4013L16.8526 32.9386ZM18.5988 32.9386L15.9796 31.4759L15.9796 31.4759L18.5988 32.9386ZM26.73 18.3782L24.2096 16.751L24.1576 16.8316L24.1108 16.9154L26.73 18.3782ZM27.4019 17.175L24.7827 15.7123L24.7358 15.7962L24.6944 15.8829L27.4019 17.175ZM27.5928 16.8332L30.2121 18.2959L32.7042 13.8332H27.5928V16.8332ZM25.4502 12.5237C25.4502 13.6368 25.2195 14.6876 24.8067 15.6366L30.3088 18.0297C31.044 16.3393 31.4502 14.4751 31.4502 12.5237H25.4502ZM17.7251 4.75C21.9787 4.75 25.4502 8.2176 25.4502 12.5237H31.4502C31.4502 4.92951 25.318 -1.25 17.7251 -1.25V4.75ZM10 12.5237C10 8.2176 13.4714 4.75 17.7251 4.75V-1.25C10.1321 -1.25 4 4.92951 4 12.5237H10ZM10.6435 15.6366C10.2307 14.6876 10 13.6368 10 12.5237H4C4 14.4751 4.40614 16.3393 5.14136 18.0297L10.6435 15.6366ZM7.85866 19.8332H7.89241V13.8332H7.85866V19.8332ZM10.66 15.6965L10.4779 15.3705L5.2394 18.2959L5.42147 18.6219L10.66 15.6965ZM11.2474 16.7616C11.063 16.477 10.8968 16.1798 10.7504 15.8716L5.3311 18.4468C5.59098 18.9937 5.88556 19.5204 6.2119 20.0241L11.2474 16.7616ZM19.4719 31.4759L11.3489 16.9301L6.11038 19.8555L14.2334 34.4013L19.4719 31.4759ZM15.9796 31.4759C16.7427 30.1094 18.7088 30.1094 19.4719 31.4759L14.2334 34.4013C15.7596 37.1343 19.6919 37.1343 21.2181 34.4013L15.9796 31.4759ZM24.1108 16.9154L15.9796 31.4759L21.2181 34.4013L29.3493 19.8409L24.1108 16.9154ZM24.6944 15.8829C24.5511 16.1833 24.389 16.4731 24.2096 16.751L29.2504 20.0053C29.5679 19.5135 29.8552 18.9999 30.1095 18.467L24.6944 15.8829ZM24.9736 15.3705L24.7827 15.7123L30.0212 18.6377L30.2121 18.2959L24.9736 15.3705ZM27.5578 19.8332H27.5928V13.8332H27.5578V19.8332Z" fill="#CCCCCC" mask="url(#path-1-inside-1_707_48327)"/>
<path d="M20.5133 11.4033C20.5133 12.9442 19.2642 14.1933 17.7233 14.1933C16.1824 14.1933 14.9332 12.9442 14.9332 11.4033C14.9332 9.86242 16.1824 8.61328 17.7233 8.61328C19.2642 8.61328 20.5133 9.86242 20.5133 11.4033Z" fill="#EEEEEE" stroke="#CCCCCC" stroke-width="3"/>
</svg>
