<svg width="18" height="18" viewBox="0 0 18 18" fill="none" xmlns="http://www.w3.org/2000/svg">
<path d="M9 9.75C10.2426 9.75 11.25 8.74264 11.25 7.5C11.25 6.25736 10.2426 5.25 9 5.25C7.75736 5.25 6.75 6.25736 6.75 7.5C6.75 8.74264 7.75736 9.75 9 9.75Z" stroke="#767676" stroke-width="1.5" stroke-miterlimit="10" stroke-linecap="round"/>
<path d="M15.75 7.78299C15.75 4.31303 12.7299 1.5 9.00452 1.5C5.27914 1.5 2.25 4.31303 2.25 7.78299C2.25 10.6213 4.26641 13.0216 7.04236 13.7965L7.47639 14.4955L8.57954 16.2726C8.76942 16.5758 9.23058 16.5758 9.41142 16.2726L10.5146 14.4955L10.9486 13.7965C13.7245 13.0132 15.741 10.6213 15.741 7.78299H15.75Z" stroke="#767676" stroke-width="1.5" stroke-miterlimit="10"/>
</svg>
