<svg width="35" height="35" viewBox="0 0 35 35" fill="none" xmlns="http://www.w3.org/2000/svg">
<path d="M5.83337 27.7087V24.792H8.75004V14.5837C8.75004 12.5663 9.35768 10.7738 10.573 9.20605C11.7882 7.63835 13.3681 6.61144 15.3125 6.12533V5.10449C15.3125 4.49685 15.5252 3.98036 15.9506 3.55501C16.3759 3.12967 16.8924 2.91699 17.5 2.91699C18.1077 2.91699 18.6242 3.12967 19.0495 3.55501C19.4749 3.98036 19.6875 4.49685 19.6875 5.10449V6.12533C21.632 6.61144 23.2118 7.63835 24.4271 9.20605C25.6424 10.7738 26.25 12.5663 26.25 14.5837V24.792H29.1667V27.7087H5.83337ZM17.5 32.0837C16.698 32.0837 16.0113 31.7981 15.4401 31.2269C14.869 30.6557 14.5834 29.9691 14.5834 29.167H20.4167C20.4167 29.9691 20.1311 30.6557 19.5599 31.2269C18.9888 31.7981 18.3021 32.0837 17.5 32.0837ZM11.6667 24.792H23.3334V14.5837C23.3334 12.9795 22.7622 11.6062 21.6198 10.4639C20.4775 9.32151 19.1042 8.75033 17.5 8.75033C15.8959 8.75033 14.5226 9.32151 13.3802 10.4639C12.2379 11.6062 11.6667 12.9795 11.6667 14.5837V24.792Z" fill="#1C1B1F"/>
</svg>
