<svg width="35" height="35" viewBox="0 0 35 35" fill="none" xmlns="http://www.w3.org/2000/svg">
<path d="M25.8034 9.60806L23.3698 6.53448C23.0234 6.09145 22.4948 5.83301 21.9297 5.83301H13.0885C12.5325 5.83301 12.0039 6.09145 11.6484 6.53448L9.21483 9.60806C8.86848 10.0511 8.33983 10.3095 7.77473 10.3095H4.7578C3.73697 10.3095 2.91666 11.1402 2.91666 12.174V27.3019C2.91666 28.3356 3.73697 29.1663 4.7578 29.1663H30.2422C31.263 29.1663 32.0833 28.3356 32.0833 27.3019V12.174C32.0833 11.1402 31.263 10.3095 30.2422 10.3095H27.2253C26.6693 10.3095 26.1406 10.0511 25.7851 9.60806H25.8034Z" fill="#656565"/>
<path d="M17.5 23.333C19.9162 23.333 21.875 21.3743 21.875 18.958C21.875 16.5418 19.9162 14.583 17.5 14.583C15.0838 14.583 13.125 16.5418 13.125 18.958C13.125 21.3743 15.0838 23.333 17.5 23.333Z" fill="#656565" stroke="white" stroke-width="2" stroke-linejoin="round"/>
</svg>
