<svg width="35" height="35" viewBox="0 0 35 35" fill="none" xmlns="http://www.w3.org/2000/svg">
<path fill-rule="evenodd" clip-rule="evenodd" d="M27.7083 5.83366H26.25V2.91699H23.3333V5.83366H11.6667V2.91699H8.75V5.83366H7.29167C5.67292 5.83366 4.375 7.14616 4.375 8.75033V29.167C4.375 30.7712 5.67292 32.0837 7.29167 32.0837H27.7083C29.3125 32.0837 30.625 30.7712 30.625 29.167V8.75033C30.625 7.14616 29.3125 5.83366 27.7083 5.83366ZM27.7083 29.167H7.29167V13.1253H27.7083V29.167ZM9.47917 18.9587C9.47917 16.9462 11.1125 15.3128 13.125 15.3128C15.1375 15.3128 16.7708 16.9462 16.7708 18.9587C16.7708 20.9712 15.1375 22.6045 13.125 22.6045C11.1125 22.6045 9.47917 20.9712 9.47917 18.9587Z" fill="#CCCCCC"/>
</svg>
