<svg width="35" height="35" viewBox="0 0 35 35" fill="none" xmlns="http://www.w3.org/2000/svg">
<path fill-rule="evenodd" clip-rule="evenodd" d="M2.91663 17.5003C2.91663 9.45033 9.43538 2.91699 17.4854 2.91699C25.55 2.91699 32.0833 9.45033 32.0833 17.5003C32.0833 25.5503 25.55 32.0837 17.4854 32.0837C9.43538 32.0837 2.91663 25.5503 2.91663 17.5003ZM23.2895 11.667H27.5916C26.1916 9.26074 23.9604 7.39408 21.277 6.47533C22.152 8.09408 22.8229 9.84408 23.2895 11.667ZM17.5 5.89199C18.7104 7.64199 19.6583 9.58158 20.2854 11.667H14.7145C15.3416 9.58158 16.2895 7.64199 17.5 5.89199ZM5.83329 17.5003C5.83329 18.5066 5.97913 19.4837 6.21246 20.417H11.1416C11.025 19.4545 10.9375 18.492 10.9375 17.5003C10.9375 16.5087 11.025 15.5462 11.1416 14.5837H6.21246C5.97913 15.517 5.83329 16.4941 5.83329 17.5003ZM7.40829 23.3337H11.7104C12.177 25.1566 12.8479 26.9066 13.7229 28.5253C11.0395 27.6066 8.80829 25.7545 7.40829 23.3337ZM7.40829 11.667H11.7104C12.177 9.84408 12.8479 8.09408 13.7229 6.47533C11.0395 7.39408 8.80829 9.24616 7.40829 11.667ZM17.5 29.1087C16.2895 27.3587 15.3416 25.4191 14.7145 23.3337H20.2854C19.6583 25.4191 18.7104 27.3587 17.5 29.1087ZM13.8541 17.5003C13.8541 18.492 13.9562 19.4545 14.0875 20.417H20.9125C21.0437 19.4545 21.1458 18.492 21.1458 17.5003C21.1458 16.5087 21.0437 15.5316 20.9125 14.5837H14.0875C13.9562 15.5316 13.8541 16.5087 13.8541 17.5003ZM21.277 28.5253C22.152 26.9066 22.8229 25.1566 23.2895 23.3337H27.5916C26.1916 25.7399 23.9604 27.6066 21.277 28.5253ZM24.0625 17.5003C24.0625 18.492 23.975 19.4545 23.8583 20.417H28.7875C29.0208 19.4837 29.1666 18.5066 29.1666 17.5003C29.1666 16.4941 29.0208 15.517 28.7875 14.5837H23.8583C23.975 15.5462 24.0625 16.5087 24.0625 17.5003Z" fill="black"/>
</svg>
