<svg width="35" height="35" viewBox="0 0 35 35" fill="none" xmlns="http://www.w3.org/2000/svg">
<path d="M29.2301 18.4648C28.9963 18.1987 28.8673 17.8566 28.8673 17.5023C28.8673 17.1481 28.9963 16.8059 29.2301 16.5398L31.0967 14.4398C31.3024 14.2104 31.4301 13.9217 31.4616 13.6151C31.493 13.3086 31.4266 13 31.2717 12.7336L28.3551 7.68773C28.2018 7.42161 27.9684 7.21067 27.6882 7.08498C27.408 6.95928 27.0953 6.92525 26.7946 6.98773L24.053 7.54189C23.7041 7.61398 23.3409 7.55588 23.032 7.37856C22.723 7.20124 22.4896 6.91697 22.3759 6.57939L21.4863 3.91064C21.3885 3.62099 21.2021 3.3694 20.9535 3.19145C20.7049 3.0135 20.4066 2.91819 20.1009 2.91898H14.2676C13.9495 2.90238 13.6348 2.99033 13.3715 3.16939C13.1082 3.34846 12.9107 3.60879 12.8092 3.91064L11.9926 6.57939C11.8788 6.91697 11.6454 7.20124 11.3365 7.37856C11.0275 7.55588 10.6643 7.61398 10.3155 7.54189L7.50089 6.98773C7.21586 6.94745 6.92528 6.99242 6.66577 7.11699C6.40625 7.24156 6.18941 7.44014 6.04255 7.68773L3.12589 12.7336C2.96716 12.997 2.89579 13.3039 2.92199 13.6103C2.94818 13.9168 3.07059 14.2071 3.27172 14.4398L5.1238 16.5398C5.3576 16.8059 5.48654 17.1481 5.48654 17.5023C5.48654 17.8566 5.3576 18.1987 5.1238 18.4648L3.27172 20.5648C3.07059 20.7975 2.94818 21.0878 2.92199 21.3943C2.89579 21.7007 2.96716 22.0076 3.12589 22.2711L6.04255 27.3169C6.19582 27.583 6.42918 27.7939 6.70938 27.9196C6.98957 28.0453 7.3023 28.0794 7.60297 28.0169L10.3446 27.4627C10.6935 27.3906 11.0567 27.4487 11.3656 27.6261C11.6746 27.8034 11.908 28.0876 12.0217 28.4252L12.9113 31.094C13.0128 31.3958 13.2103 31.6562 13.4736 31.8352C13.7369 32.0143 14.0516 32.1022 14.3696 32.0856H20.203C20.5087 32.0864 20.8069 31.9911 21.0556 31.8132C21.3042 31.6352 21.4906 31.3836 21.5884 31.094L22.478 28.4252C22.5917 28.0876 22.8251 27.8034 23.1341 27.6261C23.443 27.4487 23.8062 27.3906 24.1551 27.4627L26.8967 28.0169C27.1974 28.0794 27.5101 28.0453 27.7903 27.9196C28.0705 27.7939 28.3039 27.583 28.4571 27.3169L31.3738 22.2711C31.5286 22.0046 31.5951 21.696 31.5637 21.3895C31.5322 21.083 31.4045 20.7943 31.1988 20.5648L29.2301 18.4648ZM27.0571 20.419L28.2238 21.7315L26.3571 24.969L24.6363 24.619C23.586 24.4043 22.4934 24.5827 21.5659 25.1204C20.6385 25.658 19.9407 26.5175 19.6051 27.5356L19.0509 29.169H15.3176L14.7926 27.5065C14.4569 26.4883 13.7592 25.6288 12.8317 25.0912C11.9042 24.5535 10.8116 24.3751 9.7613 24.5898L8.04047 24.9398L6.14464 21.7169L7.3113 20.4044C8.02874 19.6023 8.42537 18.5639 8.42537 17.4877C8.42537 16.4116 8.02874 15.3732 7.3113 14.5711L6.14464 13.2586L8.0113 10.0502L9.73214 10.4002C10.7825 10.6149 11.8751 10.4365 12.8025 9.89885C13.73 9.36119 14.4278 8.50171 14.7634 7.48356L15.3176 5.83564H19.0509L19.6051 7.49814C19.9407 8.51629 20.6385 9.37577 21.5659 9.91343C22.4934 10.4511 23.586 10.6295 24.6363 10.4148L26.3571 10.0648L28.2238 13.3023L27.0571 14.6148C26.3478 15.4151 25.9561 16.4475 25.9561 17.5169C25.9561 18.5863 26.3478 19.6187 27.0571 20.419ZM17.1842 11.669C16.0305 11.669 14.9027 12.0111 13.9434 12.6521C12.9841 13.293 12.2364 14.2041 11.7949 15.27C11.3534 16.3359 11.2379 17.5088 11.463 18.6403C11.6881 19.7719 12.2436 20.8113 13.0594 21.6271C13.8752 22.4429 14.9146 22.9985 16.0462 23.2236C17.1777 23.4486 18.3506 23.3331 19.4165 22.8916C20.4824 22.4501 21.3935 21.7024 22.0345 20.7431C22.6754 19.7838 23.0176 18.656 23.0176 17.5023C23.0176 15.9552 22.403 14.4715 21.309 13.3775C20.215 12.2836 18.7313 11.669 17.1842 11.669ZM17.1842 20.419C16.6074 20.419 16.0434 20.2479 15.5638 19.9274C15.0842 19.6069 14.7103 19.1514 14.4896 18.6185C14.2688 18.0855 14.2111 17.4991 14.3236 16.9333C14.4361 16.3675 14.7139 15.8478 15.1218 15.4399C15.5297 15.032 16.0494 14.7542 16.6152 14.6417C17.181 14.5291 17.7674 14.5869 18.3004 14.8077C18.8333 15.0284 19.2889 15.4023 19.6093 15.8819C19.9298 16.3615 20.1009 16.9254 20.1009 17.5023C20.1009 18.2759 19.7936 19.0177 19.2466 19.5647C18.6996 20.1117 17.9578 20.419 17.1842 20.419Z" fill="black"/>
</svg>
