<svg width="35" height="35" viewBox="0 0 35 35" fill="none" xmlns="http://www.w3.org/2000/svg">
<path fill-rule="evenodd" clip-rule="evenodd" d="M17.5 5.83301C14.2771 5.83301 11.6666 8.44342 11.6666 11.6663C11.6666 14.8893 14.2771 17.4997 17.5 17.4997C20.7229 17.4997 23.3333 14.8893 23.3333 11.6663C23.3333 8.44342 20.7229 5.83301 17.5 5.83301ZM20.4166 11.6663C20.4166 10.0622 19.1041 8.74967 17.5 8.74967C15.8958 8.74967 14.5833 10.0622 14.5833 11.6663C14.5833 13.2705 15.8958 14.583 17.5 14.583C19.1041 14.583 20.4166 13.2705 20.4166 11.6663ZM26.25 24.7913C25.9583 23.7559 21.4375 21.8747 17.5 21.8747C13.5625 21.8747 9.04165 23.7559 8.74998 24.8059V26.2497H26.25V24.7913ZM5.83331 24.7913C5.83331 20.9122 13.6062 18.958 17.5 18.958C21.3937 18.958 29.1666 20.9122 29.1666 24.7913V29.1663H5.83331V24.7913Z" fill="black"/>
</svg>
