<svg width="35" height="35" viewBox="0 0 35 35" fill="none" xmlns="http://www.w3.org/2000/svg">
<path fill-rule="evenodd" clip-rule="evenodd" d="M8.75004 14.583C7.14587 14.583 5.83337 15.8955 5.83337 17.4997C5.83337 19.1038 7.14587 20.4163 8.75004 20.4163C10.3542 20.4163 11.6667 19.1038 11.6667 17.4997C11.6667 15.8955 10.3542 14.583 8.75004 14.583ZM26.25 14.583C24.6459 14.583 23.3334 15.8955 23.3334 17.4997C23.3334 19.1038 24.6459 20.4163 26.25 20.4163C27.8542 20.4163 29.1667 19.1038 29.1667 17.4997C29.1667 15.8955 27.8542 14.583 26.25 14.583ZM14.5834 17.4997C14.5834 15.8955 15.8959 14.583 17.5 14.583C19.1042 14.583 20.4167 15.8955 20.4167 17.4997C20.4167 19.1038 19.1042 20.4163 17.5 20.4163C15.8959 20.4163 14.5834 19.1038 14.5834 17.4997Z" fill="black"/>
</svg>
